<svg xmlns="http://www.w3.org/2000/svg" viewBox="0 0 482.18 621.35"><defs><style>.cls-1{stroke:#000;stroke-width:25.05px;}.cls-1,.cls-2{stroke-linecap:round;stroke-linejoin:round;}.cls-2,.cls-3,.cls-4{fill:none;stroke:#fff;}.cls-2,.cls-3{stroke-width:8px;}.cls-3,.cls-4{stroke-miterlimit:10;}.cls-4{stroke-width:3.51px;}</style></defs><g id="图层_2" data-name="图层 2"><g id="模板_微信图片_20240823171557.jpg" data-name="模板 微信图片_20240823171557.jpg"><path class="cls-1" d="M66.44,256.6c-1.44.27-2.88.58-4.31,1a.5.5,0,0,1-.26-1c1.33-.37,2.68-.67,4-.92L20.14,177.18v91.49c1.38-1,2.78-2,4.25-2.89a29.17,29.17,0,0,1,9.35-3.48c7.61-1.51,15.42-1.07,23.12-1.06a1,1,0,0,1,1,1c-.64,5-1.58,10-1.78,15.11-.15,3.87.05,8.21,2.35,11.5,2.71,3.88,7.78,4.58,12.17,4.41,5.26-.2,10.4-2.45,13-7.17Z"/><path class="cls-1" d="M419.2,65.17Q368.74,12.52,264.33,12.53H84.47A64.24,64.24,0,0,0,20.23,76.86L20.5,269l-.36,2.12V579.81a29,29,0,0,0,29,29H99.53a28.06,28.06,0,0,0,28.07-28.06V372.49h149q83.87,0,138.48-50.68t54.6-132.36Q469.65,117.81,419.2,65.17ZM62.13,257.58a.5.5,0,0,1-.26-1,44.26,44.26,0,0,1,4.39-1m264.47.25q-26.21,24.47-76,24.46H127.6V101.64H245.11q63.34,0,87.59,26.21T357,190.76Q357,231.38,330.73,255.85Z"/><text/><path class="cls-2" d="M7.5,609c11.35-22.42,32-43.31,50-54-22-34,34-60,38-18"/><path class="cls-3" d="M95.5,537c1.88-4.78,24-10.48,44-2"/><path class="cls-3" d="M7.5,443c7.69-17.2,29.7-32.79,42-40,0,55,74,36,46-13,22-5,46-2.24,46-5"/><path class="cls-3" d="M141.5,266.53v38.56a25.5,25.5,0,1,1,13,47.44c-4.15,0-9.25-.58-13-2.24V387"/><path class="cls-3" d="M142,266.53H97.43A28.56,28.56,0,0,1,101,280a24.5,24.5,0,0,1-49,0"/><path class="cls-3" d="M4,308.53c-.18-15.52,19.15-40.28,40-42H56.06A24.32,24.32,0,0,0,52,280"/><path class="cls-3" d="M143.91,116.38H99.34a28.56,28.56,0,0,1,3.57,13.5,24.5,24.5,0,0,1-49,0"/><path class="cls-3" d="M6,146.53C5.82,131,25.06,118.1,45.91,116.38H58a24.43,24.43,0,0,0-4.06,13.51"/><path class="cls-3" d="M144,.53l-.58,32.61v.51a25,25,0,0,1,11.9-3,21.51,21.51,0,0,1-.65,43"/><path class="cls-3" d="M143,117.53l.15-47.06s0-.22,0-.53A21.35,21.35,0,0,0,155,73.68"/><line class="cls-4" x1="202" y1="166.53" x2="203" y2="166.53"/><path class="cls-3" d="M356.21,12.24,339.61,49l-.26.57A31,31,0,0,1,354.3,52a26.57,26.57,0,1,1-21.75,48.49"/><path class="cls-3" d="M304,125.53,321.07,91.2l.26-.6a26.46,26.46,0,0,0,11.56,10"/><path class="cls-3" d="M343,189.32l47.37.63h.54A27.4,27.4,0,0,1,387.7,177a23.36,23.36,0,0,1,46.71.71"/><path class="cls-3" d="M482,190.4l-51.09-.16h-.58a23.19,23.19,0,0,0,4.06-12.81"/><path class="cls-3" d="M363.2,371.05l-14.94-35-.23-.54a29.39,29.39,0,0,1-11.25,8.83A25.09,25.09,0,0,1,317,298.23"/><path class="cls-3" d="M308.45,246l22.29,50.16s.1.25.24.57a24.9,24.9,0,0,0-14.34,1.65"/></g></g></svg>