<svg xmlns="http://www.w3.org/2000/svg"  viewBox="0 0 480.18 621.35"><defs><style>.cls-1{stroke:#000;stroke-width:25.05px;}.cls-1,.cls-2{stroke-linecap:round;stroke-linejoin:round;}.cls-2,.cls-3,.cls-4,.cls-5,.cls-6,.cls-7{fill:none;stroke:#fff;}.cls-2,.cls-3{stroke-width:4px;}.cls-3,.cls-4,.cls-5,.cls-6,.cls-7{stroke-miterlimit:10;}.cls-4{stroke-width:3.51px;}.cls-5{stroke-width:4.34px;}.cls-6{stroke-width:3.81px;}.cls-7{stroke-width:4.1px;}</style></defs><g id="图层_2" data-name="图层 2"><g id="模板_微信图片_20240823171557.jpg" data-name="模板 微信图片_20240823171557.jpg"><path class="cls-1" d="M64.44,256.6c-1.44.27-2.88.58-4.31,1a.5.5,0,0,1-.26-1c1.33-.37,2.68-.67,4-.92L18.14,177.18v91.49c1.38-1,2.78-2,4.25-2.89a29.17,29.17,0,0,1,9.35-3.48c7.61-1.51,15.42-1.07,23.12-1.06a1,1,0,0,1,1,1c-.64,5-1.58,10-1.78,15.11-.15,3.87.05,8.21,2.35,11.5,2.71,3.88,7.78,4.58,12.17,4.41,5.26-.2,10.4-2.45,13-7.17Z"/><path class="cls-1" d="M417.2,65.17Q366.74,12.52,262.33,12.53H18.14L18.5,269l-.36,2.12V608.82H125.6V372.49h149q83.87,0,138.48-50.68t54.6-132.36Q467.65,117.81,417.2,65.17ZM60.13,257.58a.5.5,0,0,1-.26-1,44.26,44.26,0,0,1,4.39-1m264.47.25q-26.21,24.47-76,24.46H125.6V101.64H243.11q63.34,0,87.59,26.21T355,190.76Q355,231.38,328.73,255.85Z"/><text/><path class="cls-2" d="M5.5,609c11.35-22.42,32-43.31,50-54-22-34,34-60,38-18"/><path class="cls-3" d="M93.5,537c1.88-4.78,24-10.48,44-2"/><path class="cls-3" d="M5.5,443c7.69-17.2,29.7-32.79,42-40,0,55,74,36,46-13,22-5,46-2.24,46-5"/><path class="cls-3" d="M139.5,266.53v38.56a25.5,25.5,0,1,1,13,47.44c-4.15,0-9.25-.58-13-2.24V387"/><path class="cls-3" d="M140,266.53H95.43A28.56,28.56,0,0,1,99,280a24.5,24.5,0,0,1-49,0"/><path class="cls-3" d="M2,308.53c-.18-15.52,19.15-40.28,40-42H54.06A24.32,24.32,0,0,0,50,280"/><path class="cls-3" d="M141.91,116.38H97.34a28.56,28.56,0,0,1,3.57,13.5,24.5,24.5,0,0,1-49,0"/><path class="cls-3" d="M4,146.53C3.82,131,23.06,118.1,43.91,116.38H56a24.43,24.43,0,0,0-4.06,13.51"/><path class="cls-4" d="M142,.53l-.58,32.61v.51a25,25,0,0,1,11.9-3,21.51,21.51,0,0,1-.65,43"/><path class="cls-4" d="M141,117.53l.15-47.06s0-.22,0-.53A21.35,21.35,0,0,0,153,73.68"/><line class="cls-4" x1="200" y1="166.53" x2="201" y2="166.53"/><path class="cls-5" d="M354.21,12.24,337.61,49l-.26.57A31,31,0,0,1,352.3,52a26.57,26.57,0,1,1-21.75,48.49"/><path class="cls-5" d="M302,125.53,319.07,91.2l.26-.6a26.46,26.46,0,0,0,11.56,10"/><path class="cls-6" d="M341,189.32l47.37.63h.54A27.4,27.4,0,0,1,385.7,177a23.36,23.36,0,0,1,46.71.71"/><path class="cls-6" d="M480,190.4l-51.09-.16h-.58a23.19,23.19,0,0,0,4.06-12.81"/><path class="cls-7" d="M361.2,371.05l-14.94-35-.23-.54a29.39,29.39,0,0,1-11.25,8.83A25.09,25.09,0,0,1,315,298.23"/><path class="cls-7" d="M306.45,246l22.29,50.16s.1.25.24.57a24.9,24.9,0,0,0-14.34,1.65"/></g></g></svg>
